<?xml version="1.0" encoding="UTF-8" standalone="no"?><!DOCTYPE svg PUBLIC "-//W3C//DTD SVG 1.1//EN" "http://www.w3.org/Graphics/SVG/1.1/DTD/svg11.dtd"><svg width="100%" height="100%" viewBox="0 0 499 690" version="1.1" xmlns="http://www.w3.org/2000/svg" xmlns:xlink="http://www.w3.org/1999/xlink" xml:space="preserve" style="fill-rule:evenodd;clip-rule:evenodd;stroke-linecap:round;stroke-linejoin:round;stroke-miterlimit:1.41421;"><g><path d="M369.576,473.855c-17.613,52.345 -41.167,77.938 -52.565,93.208l0.074,0.588c-6.719,-5.769 -3.178,-29.165 -5.838,-38.198c-4.187,-14.214 -16.586,-74.679 -11.453,-86.854c4.878,-11.571 12.219,-16.649 19.984,-26.068c2.014,-2.442 0.357,-4.958 1.573,-7.432c5.837,-11.878 19.833,-16.627 33.688,-14.703c13.046,1.812 3.582,27.565 6.062,35.927c4.266,14.384 12.573,28.586 12.573,43.505c0,0.635 -0.281,1.93 0.224,2.271" style="fill:#a95d2c;stroke-width:10px;stroke:#000;"/><path d="M239.467,437.78c-0.043,-0.025 7.529,14.245 8.391,18.915c0.127,0.693 7.347,60.766 9.715,71.944c3.415,16.122 7.118,26.722 11.025,42.623c4.444,18.085 7.097,38.15 14.725,55.358c2.397,5.407 5.086,38.319 6.493,39.758c10.388,10.63 37.992,2.96 42.968,-7.267l-0.063,0c-5.007,-15.255 -11.157,-29.689 -13.932,-46.596c-3.669,-22.356 -2.007,-45.583 -6.177,-68.078c-5.878,-31.716 -10.868,-94.207 -10.868,-94.207c5.945,-21.036 19.349,-48.753 22.744,-57.915l38.783,4.838c-1.786,0 -1.03,60.651 2.374,74.506c1.131,4.6 5.953,9.038 8.233,13.356c1.857,3.514 2.591,10.885 3.324,14.857c4.648,25.186 12.398,50.092 15.834,75.665c2.513,18.7 4.342,59.513 5.541,61.13c1.585,2.138 6.776,15.486 10.609,16.778c0.479,0.162 33.7,0.5 35.308,0.32c3.494,-0.392 18.611,-6.304 14.248,-12.291c-9.005,-12.355 -22.296,-22.357 -26.282,-38.58c-5.646,-22.978 -3.553,-47.961 -9.184,-70.747c-2.875,-11.636 -7.456,-70.024 -7.089,-74.218c0.401,-4.568 2.349,-53.844 6.931,-62.151c16.768,-30.403 34.178,-57.686 39.424,-93.192c2.383,-16.124 3.212,-97.514 0.519,-112.107c-2.993,-16.218 -4.275,-38.854 -2.579,-54.932l0.404,-1.818c31.331,-24.22 37.988,-138.645 16.781,-122.58c-19.598,14.847 -77.411,64.443 -78.213,64.443l23.065,-19.801c-3.962,-0.665 -27.143,-9.786 -56.127,-10.492c-27.1,-0.66 -58.323,9.849 -60.595,10.913l19.157,19.38c-0.801,0 -58.614,-49.596 -78.213,-64.443c-21.207,-16.065 -14.55,98.36 16.782,122.58l-4.274,0.43c-10.442,4.561 -37.055,71.881 -37.842,83.571c-1.379,20.477 5.383,37.799 5.383,58.031c0,6.726 -0.74,13.047 -1.444,19.258c-1.233,10.884 -2.356,21.428 0.813,33.217l-3.691,-83.929c-14.978,15.823 -57.067,79.279 -67.957,96.755c-9.067,14.55 -46.98,106.793 -48.446,119.391c-0.73,6.27 -13.066,43.196 -8.474,54.535l95.114,64.717l3.888,2.153c8.279,7.445 40.497,33.204 42.874,37.497c2.755,4.977 48.421,47.831 56.539,52.138" style="fill:#a95d2c;stroke-width:10px;stroke:#000;"/><path d="M192.705,579.705c-30.834,0 -90.451,63.278 -96.581,79.513l-2.095,3.751c-9.812,-1.166 -17.639,-2.367 -20.547,-3.538c-17.079,-6.879 -31.054,-13.52 -53.195,-43.071c-7.362,-9.825 -15.297,-31.308 -9.661,-54.609c11.183,-46.239 70.902,-51.941 86.04,-47.219c0,0 80.861,52.713 86.958,56.226c2.003,1.153 3.921,2.256 5.979,3.297c0.728,0.368 2.859,1.592 2.779,1.592" style="fill:#a95d2c;stroke-width:10px;stroke:#000;"/><path d="M296.006,671.493c7.768,4.123 -30.532,8.99 -35.854,8.99c-15.346,0 -30.312,-0.527 -45.439,-2.563c-11.804,-1.589 -52.246,-5.46 -59.547,-7.101c-6.789,-1.527 -38.62,-1.991 -61.137,-7.85c-5.51,-1.433 64.895,-85.095 98.857,-86.696c0.791,-0.037 97.73,88.935 104.422,93.448c0.698,0.47 -6.123,6.685 -6.316,7.275" style="fill:#f2f2f2;stroke-width:10px;stroke:#000;"/><path d="M359.304,260.099c-8.269,5.577 -60.521,-45.811 -75.005,-40.927c-13.378,4.511 -6.51,31.847 -6.51,42.292c0,10.81 37.468,114.875 47.174,134.513c8.003,16.191 -26.053,57.233 -0.466,64.966c15.778,4.768 33.004,-54.334 37.5,-59.422c16.626,-18.817 42.477,-88.43 48.729,-105.344c4.711,-12.745 30.862,-80.571 13.026,-73.823c-23.695,8.965 -58.339,33.625 -64.448,37.745Z" style="fill:#f2f2f2;stroke-width:3px;stroke:#000;"/><path d="M344.495,220.625c0,0 6.196,1.638 12.619,2.122c3.854,0.29 7.789,0.166 10.517,-0.978c6.039,-2.531 -3.409,9.533 -10.506,9.203c-5.016,-0.233 -10.374,-3.554 -12.63,-10.347Z" style="fill:#0d0d0d;stroke-width:3px;stroke:#000;"/><path d="M411.347,155.211c-10.628,-3.848 -28.348,9.401 -25.176,11.116" style="fill:none;stroke-width:11px;stroke:#000;"/><path d="M305.797,155.211c10.628,-3.848 28.348,9.401 25.176,11.116" style="fill:none;stroke-width:10px;stroke:#000;"/><path d="M448.444,112.839c15.514,-9.274 25.043,-65.126 24.324,-70.271" style="fill:none;stroke-width:10px;stroke:#000;"/><path d="M272.806,112.839c-15.515,-9.274 -25.044,-65.126 -24.324,-70.271" style="fill:none;stroke-width:10px;stroke:#000;"/><path d="M311.486,204.881c-3.346,-3.558 -4.639,-10.935 -6.988,-15.688c-0.722,-1.459 -2.431,-4.89 -1.516,-6.763c2.018,-4.13 13.541,0.887 15.158,3.068c1.579,2.13 5.875,23.71 7.326,27.625c1.035,2.791 2.235,5.311 3.116,8.299c1.168,3.969 6.298,19.853 8.973,19.405c7.596,-1.273 41.988,1.983 47.027,-4.852c4.064,-5.514 3.356,-9.733 4.884,-15.916c0.803,-3.248 9.271,-34.04 13.811,-36.323c1.862,-0.936 3.945,-0.424 6.428,0.683c1.951,0.871 1.824,3.848 1.824,5.569c0,7.87 -16.074,27.541 -16.506,28.024c-1.693,1.888 -5.614,8.984 -6.315,10.402c-4.665,9.44 -14.173,18.097 -25.049,20.402c-4.549,0.964 -9.336,0.818 -14.109,-0.847c-4.613,-1.61 -10.258,-5.424 -14.4,-8.242c-2.917,-1.985 -5.16,-7.111 -8,-9.664c-2.271,-2.043 -4.923,-4.672 -6.401,-7.163c-2.735,-4.612 -9.263,-18.019 -9.263,-18.019Z" style="fill:#f2f2f2;stroke-width:3px;stroke:#000;"/><path d="M346.519,241.828c-22.195,-1.184 -22.537,-29.288 -9.012,-21.599c2.759,1.568 1.894,5.378 4.211,6.992c3.178,2.213 8.3,3.102 11.479,5.892c2.206,1.936 3.079,5.095 1.238,7.75c-0.701,1.012 -6.681,1.031 -7.916,0.965Z" style="fill:#f2f2f2;stroke-width:3px;stroke:#000;"/><path d="M367.301,241.828c22.195,-1.184 22.537,-29.288 9.012,-21.599c-2.759,1.568 -1.894,5.378 -4.211,6.992c-3.178,2.213 -8.3,3.102 -11.479,5.892c-2.206,1.936 -3.079,5.095 -1.238,7.75c0.701,1.012 6.681,1.031 7.916,0.965Z" style="fill:#f2f2f2;stroke-width:3px;stroke:#000;"/><path d="M251.444,31.29c0,0 9.481,81.648 24.362,82.549c6.344,0.384 36.41,-32.111 30.81,-31.753c-5.046,0.322 -41.729,-46.756 -55.172,-50.796Z" style="fill:#b49e90;stroke-width:2.5px;stroke:#000;"/><path d="M470.307,32.29c0,0 -9.481,81.648 -24.362,82.549c-6.344,0.384 -36.41,-32.111 -30.81,-31.753c5.046,0.322 41.729,-46.756 55.172,-50.796Z" style="fill:#b49e90;stroke-width:2.5px;stroke:#000;"/><path d="M307.307,671.493c-14.318,8.194 -34.543,-85.15 -34.802,-87.605c-0.901,-8.527 7.341,-39.231 7.341,-46.883c0,-10.143 2.62,-41.049 7.327,-40.414c2.716,0.366 10.046,20.329 13.558,25.066c2.1,2.832 5.223,7.673 5.895,11.313c2.087,11.308 6.917,46.814 7.832,53.488c1.142,8.335 0.314,17.584 2.693,25.635c0.824,2.789 4.312,6.381 5.895,8.869c2.432,3.822 3.233,9.173 4.295,13.471c1.215,4.919 4.358,9.377 5.642,14.154c0.906,3.371 0.499,6.911 1.01,10.287c0.372,2.461 -20.605,9.14 -26.686,12.619Z" style="fill:#0d0d0d;stroke-width:2.5px;stroke:#000;"/><path d="M396.647,525.466c1.514,4.61 -1.798,31.701 -2.779,40.984c-0.623,5.897 2.301,11.719 1.348,17.393c-0.784,4.664 -3.051,9.057 -2.106,14.154c1.392,7.511 4.582,14.427 6.988,20.918c2.141,5.775 1.444,15.784 0.842,21.885c-0.192,1.944 4.092,7.847 5.475,9.713c2.602,3.51 8.018,1.236 12.041,2.197c17.394,4.155 49.919,-6.541 40.484,-11.115c-3.988,-1.934 -4.051,-2.545 -6.668,-6.531c-3.23,-4.921 -13.454,-10.727 -14.699,-16.604c-0.911,-4.302 -4.157,-7.629 -5.137,-11.937c-1.271,-5.59 -3.388,-11.832 -3.959,-17.622c-0.642,-6.513 0.089,-13.719 -1.767,-20.007c-1.468,-4.973 0.618,-10.596 -1.071,-15.506c-1.256,-3.654 -1.251,-7.652 -1.64,-11.606c-0.954,-9.693 -14.944,-57.153 -17.92,-61.562c-4.571,-6.772 -10.403,42.286 -9.432,45.246Z" style="fill:#0d0d0d;stroke-width:2.5px;stroke:#000;"/></g></svg>